<?xml version="1.0" standalone="no"?><!DOCTYPE svg PUBLIC "-//W3C//DTD SVG 1.1//EN" "http://www.w3.org/Graphics/SVG/1.1/DTD/svg11.dtd"><svg t="1589425331733" class="icon" viewBox="0 0 1219 1024" version="1.1" xmlns="http://www.w3.org/2000/svg" p-id="2056" xmlns:xlink="http://www.w3.org/1999/xlink" width="238.0859375" height="200"><defs><style type="text/css"></style></defs><path d="M261.753905 34.133333L928.426667 237.958095a78.994286 78.994286 0 0 1 52.467809 98.596572l-142.628571 466.407619a78.994286 78.994286 0 0 1-98.596572 52.419047l-666.770285-203.824762A78.994286 78.994286 0 0 1 20.528762 552.96l142.579809-466.456381A78.994286 78.994286 0 0 1 254.780952 32.280381L261.753905 34.133333z m-21.406476 69.924572l-1.852953-0.292572a5.851429 5.851429 0 0 0-5.412571 4.144762l-142.628572 466.407619a5.851429 5.851429 0 0 0 3.900953 7.314286l666.721524 203.824762a5.851429 5.851429 0 0 0 7.314285-3.900952l142.57981-466.40762a5.851429 5.851429 0 0 0-3.900953-7.265523L240.39619 104.057905z" fill="#FFBB20" p-id="2057"></path><path d="M237.470476 231.131429h886.150095a91.184762 91.184762 0 0 1 91.184762 91.136V932.815238a91.184762 91.184762 0 0 1-91.184762 91.184762H237.470476A91.184762 91.184762 0 0 1 146.285714 932.815238V322.31619a91.184762 91.184762 0 0 1 91.184762-91.184761z" fill="#4D84DB" p-id="2058"></path><path d="M243.809524 328.655238V926.47619h873.472V328.655238z" fill="#FFFFFF" p-id="2059"></path><path d="M682.666667 780.190476a146.285714 146.285714 0 1 0 0-292.571428 146.285714 146.285714 0 0 0 0 292.571428z m0-48.761905a97.52381 97.52381 0 1 1 0-195.047619 97.52381 97.52381 0 0 1 0 195.047619z" fill="#E01313" p-id="2060"></path><path d="M682.666667 792.380952a24.380952 24.380952 0 0 1 23.990857 19.992381l0.390095 4.388572v40.618666a24.380952 24.380952 0 0 1-48.371809 4.388572l-0.390096-4.388572v-40.618666a24.380952 24.380952 0 0 1 24.380953-24.380953z m143.164952-49.249523l3.413333 2.82819 28.672 28.769524a24.380952 24.380952 0 0 1-31.061333 37.254095l-3.413333-2.82819-28.720762-28.720762a24.380952 24.380952 0 0 1 31.110095-37.302857z m-255.219809 2.82819a24.380952 24.380952 0 0 1 2.82819 31.110095l-2.82819 3.413334-28.769524 28.672a24.380952 24.380952 0 0 1-37.254096-31.061334l2.828191-3.413333 28.720762-28.720762a24.380952 24.380952 0 0 1 34.474667 0z m335.530666-136.435809a24.380952 24.380952 0 0 1 4.388572 48.371809l-4.388572 0.390095h-40.618666a24.380952 24.380952 0 0 1-4.388572-48.371809l4.388572-0.390095h40.618666z m-446.951619 0h40.618667a24.380952 24.380952 0 0 1 4.388571 48.371809l-4.388571 0.390095h-40.618667a24.380952 24.380952 0 0 1-4.388571-48.371809l4.388571-0.390095z m398.726095-150.869334a24.380952 24.380952 0 0 1 2.828191 31.061334l-2.828191 3.413333-28.720762 28.720762a24.380952 24.380952 0 0 1-37.302857-31.110095l2.828191-3.413334 28.769524-28.672a24.380952 24.380952 0 0 1 34.425904 0z m-350.500571 0a24.380952 24.380952 0 0 1 31.061333-2.82819l3.413334 2.82819 28.720762 28.720762a24.380952 24.380952 0 0 1-31.110096 37.302857l-3.413333-2.82819-28.672-28.769524a24.380952 24.380952 0 0 1 0-34.425905zM682.666667 385.999238a24.380952 24.380952 0 0 1 23.990857 19.992381l0.390095 4.388571v40.667429a24.380952 24.380952 0 0 1-48.371809 4.388571l-0.390096-4.388571v-40.618667a24.380952 24.380952 0 0 1 24.380953-24.380952z" fill="#FFBB20" p-id="2061"></path></svg>