<?xml version="1.0" standalone="no"?><!DOCTYPE svg PUBLIC "-//W3C//DTD SVG 1.1//EN" "http://www.w3.org/Graphics/SVG/1.1/DTD/svg11.dtd"><svg t="1589425317294" class="icon" viewBox="0 0 1024 1024" version="1.1" xmlns="http://www.w3.org/2000/svg" p-id="1796" xmlns:xlink="http://www.w3.org/1999/xlink" width="200" height="200"><defs><style type="text/css"></style></defs><path d="M813.952 167.338667H210.048a20.224 20.224 0 0 0-20.138667 20.309333v649.216c0 11.221333 9.002667 20.309333 20.138667 20.309333h603.904c11.093333 0 20.138667-9.088 20.138667-20.309333V187.648a20.224 20.224 0 0 0-20.138667-20.309333z m103.082667 795.477333c0 33.706667-27.050667 60.970667-60.416 60.970667H167.381333c-33.365333 0-60.416-27.306667-60.416-60.970667V61.696C106.965333 27.989333 133.973333 0.725333 167.381333 0.725333h689.237334c33.365333 0 60.416 27.306667 60.416 60.970667v901.12z" fill="#4D84DB" p-id="1797"></path><path d="M598.784 240.938667h165.12c9.045333 0 16.426667 11.093333 16.426667 24.618666 0 13.525333-7.381333 24.576-16.469334 24.576h-165.12c-9.045333 0-16.426667-11.050667-16.426666-24.576 0-13.568 7.381333-24.618667 16.469333-24.618666z m0 88.106666h165.12c9.045333 0 16.426667 10.794667 16.426667 23.978667 0 13.141333-7.381333 23.936-16.469334 23.936h-165.12c-9.045333 0-16.426667-10.794667-16.426666-23.936 0-13.226667 7.381333-23.978667 16.469333-23.978667z m-338.645333 196.352h503.722666c9.045333 0 16.469333 10.666667 16.469334 23.68 0 13.013333-7.424 23.68-16.469334 23.68H260.138667c-9.045333 0-16.469333-10.666667-16.469334-23.68 0-13.013333 7.424-23.68 16.469334-23.68z m0 104.490667h503.722666c9.045333 0 16.469333 10.794667 16.469334 24.064 0 13.226667-7.424 24.021333-16.469334 24.021333H260.138667c-9.045333 0-16.469333-10.794667-16.469334-24.021333 0-13.226667 7.424-24.064 16.469334-24.064z m0 106.709333h302.250666c9.045333 0 16.469333 10.581333 16.469334 23.466667 0 12.928-7.424 23.509333-16.469334 23.509333H260.138667c-9.045333 0-16.469333-10.581333-16.469334-23.466666 0-12.928 7.424-23.466667 16.469334-23.466667z" fill="#2CB18D" p-id="1798"></path><path d="M270.378667 247.893333h241.450666c11.221333 0 20.309333 9.088 20.309334 20.309334v182.826666a20.309333 20.309333 0 0 1-20.309334 20.352H270.378667a20.309333 20.309333 0 0 1-20.309334-20.352V268.202667c0-11.221333 9.088-20.309333 20.309334-20.309334z" fill="#E01313" p-id="1799"></path><path d="M503.125333 302.208c3.882667 3.968 2.602667 7.466667-0.426666 10.794667l-1.578667 1.621333-81.578667 77.269333c-2.304 2.218667-4.650667 3.925333-7.04 4.096h-0.64c-3.072 0.426667-5.632-1.92-8.277333-4.906666l-40.704-45.610667-78.122667 75.477333c-4.053333 3.84-8.106667 6.229333-12.714666 1.664-3.925333-3.925333-2.474667-7.210667 0.554666-10.496l1.621334-1.621333 81.237333-78.421333c2.389333-2.261333 4.608-4.138667 6.997333-4.394667 3.2-0.469333 5.973333 1.706667 8.618667 4.693333l41.088 46.08 78.549333-74.368c4.053333-3.84 7.808-6.485333 12.373334-1.877333z" fill="#FFFFFF" p-id="1800"></path></svg>