<?xml version="1.0" standalone="no"?><!DOCTYPE svg PUBLIC "-//W3C//DTD SVG 1.1//EN" "http://www.w3.org/Graphics/SVG/1.1/DTD/svg11.dtd"><svg t="1589425325475" class="icon" viewBox="0 0 1024 1024" version="1.1" xmlns="http://www.w3.org/2000/svg" p-id="1926" xmlns:xlink="http://www.w3.org/1999/xlink" width="200" height="200"><defs><style type="text/css"></style></defs><path d="M169.658182 1024C114.222545 1024 69.818182 978.385455 69.818182 922.717091V101.282909C69.818182 45.614545 114.222545 0 169.658182 0h523.170909l240.034909 246.690909V930.909091a93.090909 93.090909 0 0 1-93.090909 93.090909H169.658182zM653.498182 93.090909H169.658182C166.167273 93.090909 162.909091 96.488727 162.909091 101.282909v821.434182c0 4.794182 3.304727 8.192 6.749091 8.192h670.114909V284.485818L653.544727 93.090909z" fill="#E01313" p-id="1927"></path><path d="M284.206545 256c39.191273 0 71.214545-31.092364 71.214546-69.818182s-32.023273-69.818182-71.214546-69.818182c-39.191273 0-71.214545 31.092364-71.214545 69.818182s32.023273 69.818182 71.214545 69.818182z m0-46.545455c-13.777455 0-24.669091-10.565818-24.66909-23.272727s10.891636-23.272727 24.66909-23.272727c13.777455 0 24.669091 10.565818 24.669091 23.272727s-10.891636 23.272727-24.669091 23.272727zM452.049455 256c39.191273 0 71.214545-31.092364 71.214545-69.818182s-32.023273-69.818182-71.214545-69.818182c-39.191273 0-71.214545 31.092364-71.214546 69.818182s32.023273 69.818182 71.214546 69.818182z m0-46.545455c-13.777455 0-24.669091-10.565818-24.669091-23.272727s10.891636-23.272727 24.669091-23.272727c13.777455 0 24.669091 10.565818 24.66909 23.272727s-10.891636 23.272727-24.66909 23.272727zM619.892364 256c39.191273 0 71.214545-31.092364 71.214545-69.818182s-32.023273-69.818182-71.214545-69.818182c-39.191273 0-71.214545 31.092364-71.214546 69.818182s32.023273 69.818182 71.214546 69.818182z m0-46.545455c-13.777455 0-24.669091-10.565818-24.669091-23.272727s10.891636-23.272727 24.669091-23.272727c13.777455 0 24.669091 10.565818 24.669091 23.272727s-10.891636 23.272727-24.669091 23.272727z" fill="#E01313" p-id="1928"></path><path d="M344.901818 439.016727V837.818182h65.349818v-153.041455h98.862546c97.186909 0 145.780364-41.332364 145.780363-123.438545 0-81.547636-48.593455-122.321455-144.663272-122.321455H344.901818z m65.349818 55.854546h94.952728c28.485818 0 49.710545 5.026909 63.115636 15.639272 13.405091 10.053818 20.666182 26.810182 20.666182 50.827637 0 24.017455-6.702545 41.332364-20.107637 51.944727-13.405091 10.053818-34.629818 15.639273-63.674181 15.639273h-94.952728v-134.050909z" fill="#E01313" p-id="1929"></path><path d="M245.108364 325.818182H325.818182a23.272727 23.272727 0 0 0 0-46.545455H245.108364a23.272727 23.272727 0 0 0 0 46.545455zM407.272727 326.562909h80.709818a23.272727 23.272727 0 0 0 0-46.545454H407.272727a23.272727 23.272727 0 0 0 0 46.545454zM581.818182 326.562909h80.709818a23.272727 23.272727 0 1 0 0-46.545454H581.818182a23.272727 23.272727 0 1 0 0 46.545454z" fill="#E01313" p-id="1930"></path></svg>