<?xml version="1.0" standalone="no"?><!DOCTYPE svg PUBLIC "-//W3C//DTD SVG 1.1//EN" "http://www.w3.org/Graphics/SVG/1.1/DTD/svg11.dtd"><svg t="1589425363314" class="icon" viewBox="0 0 1024 1024" version="1.1" xmlns="http://www.w3.org/2000/svg" p-id="2448" xmlns:xlink="http://www.w3.org/1999/xlink" width="200" height="200"><defs><style type="text/css"></style></defs><path d="M320 0h384A106.666667 106.666667 0 0 1 810.666667 106.666667v810.666666a106.666667 106.666667 0 0 1-106.666667 106.666667h-384A106.666667 106.666667 0 0 1 213.333333 917.333333v-810.666666A106.666667 106.666667 0 0 1 320 0z" fill="#4D84DB" p-id="2449"></path><path d="M352 85.333333H384a21.333333 21.333333 0 0 1 21.333333 21.333334 21.333333 21.333333 0 0 0 21.333334 21.333333h170.666666a21.333333 21.333333 0 0 0 21.333334-21.333333 21.333333 21.333333 0 0 1 21.333333-21.333334h32c29.44 0 53.333333 23.893333 53.333333 53.333334V874.666667a64 64 0 0 1-64 64h-298.666666A64 64 0 0 1 298.666667 874.666667V138.666667C298.666667 109.226667 322.56 85.333333 352 85.333333z" fill="#FFFFFF" p-id="2450"></path><path d="M405.333333 896h213.333334a21.333333 21.333333 0 1 0 0-42.666667h-213.333334a21.333333 21.333333 0 1 0 0 42.666667z" fill="#666666" p-id="2451"></path></svg>