<?xml version="1.0" standalone="no"?><!DOCTYPE svg PUBLIC "-//W3C//DTD SVG 1.1//EN" "http://www.w3.org/Graphics/SVG/1.1/DTD/svg11.dtd"><svg t="1589425339780" class="icon" viewBox="0 0 1228 1024" version="1.1" xmlns="http://www.w3.org/2000/svg" p-id="2187" xmlns:xlink="http://www.w3.org/1999/xlink" width="239.84375" height="200"><defs><style type="text/css"></style></defs><path d="M1184.101216 335.104689L1037.362163 84.27614C1010.686989 35.789788 959.99904 0.461824 905.471095 0.001024H332.543667A152.319848 152.319848 0 0 0 200.4478 75.623348L47.206353 333.56869a155.238245 155.238245 0 0 0 12.902387 176.537424l3.481596 3.891196 476.159524 477.900322c16.639983 19.404781 44.236756 32.102368 73.318327 32.102368 29.132771 0 56.729543-12.697587 75.775924-34.713565l475.289125-476.825123c43.878356-52.019148 50.687949-121.395079 19.96798-177.356623zM1088.613311 443.392581l-475.545124 477.183522L138.239862 443.90458a52.838347 52.838347 0 0 1-3.020797-58.163142l153.292646-258.047742A50.17595 50.17595 0 0 1 332.185268 102.400922h572.825027c14.079986 0.1024 32.665567 13.107187 43.315157 32.409567l146.278253 250.06055c10.08639 18.892781 7.679992 42.239958-5.990394 58.521542z" fill="#FFBA2D" p-id="2188"></path><path d="M409.59959 384.00064L486.399514 460.800563 614.399386 384.00064 742.399258 460.800563 819.199181 384.00064V563.200461a51.199949 51.199949 0 0 1-51.199949 51.199949H460.799539a51.199949 51.199949 0 0 1-51.199949-51.199949V384.00064z" fill="#FFBA2D" p-id="2189"></path><path d="M409.59959 307.200717m-51.199948 0a51.199949 51.199949 0 1 0 102.399897 0 51.199949 51.199949 0 1 0-102.399897 0Z" fill="#FFBA2D" p-id="2190"></path><path d="M614.399386 307.200717m-51.199949 0a51.199949 51.199949 0 1 0 102.399897 0 51.199949 51.199949 0 1 0-102.399897 0Z" fill="#FFBA2D" p-id="2191"></path><path d="M819.199181 307.200717m-51.199949 0a51.199949 51.199949 0 1 0 102.399898 0 51.199949 51.199949 0 1 0-102.399898 0Z" fill="#FFBA2D" p-id="2192"></path></svg>