<?xml version="1.0" standalone="no"?><!DOCTYPE svg PUBLIC "-//W3C//DTD SVG 1.1//EN" "http://www.w3.org/Graphics/SVG/1.1/DTD/svg11.dtd"><svg t="1589425380549" class="icon" viewBox="0 0 1251 1024" version="1.1" xmlns="http://www.w3.org/2000/svg" p-id="2707" xmlns:xlink="http://www.w3.org/1999/xlink" width="244.3359375" height="200"><defs><style type="text/css"></style></defs><path d="M1080.888889 707.925333a56.888889 56.888889 0 0 1 56.490667 50.289778l0.398222 6.599111v101.148445a158.037333 158.037333 0 0 1-148.423111 157.752889l-9.614223 0.284444h-101.148444a56.888889 56.888889 0 0 1-6.599111-113.379556l6.599111-0.398222h101.148444c22.414222 0 40.96-16.668444 43.804445-38.229333l0.455111-6.030222v-101.148445a56.888889 56.888889 0 0 1 56.888889-56.888889z m-910.222222 0a56.888889 56.888889 0 0 1 56.490666 50.289778l0.398223 6.599111v101.148445c0 22.414222 16.668444 40.96 38.229333 43.804444l6.030222 0.455111h101.148445a56.888889 56.888889 0 0 1 6.599111 113.379556L372.963556 1024H271.815111a158.037333 158.037333 0 0 1-157.752889-148.423111L113.777778 865.962667v-101.148445a56.888889 56.888889 0 0 1 56.888889-56.888889zM372.906667 0a56.888889 56.888889 0 0 1 6.656 113.379556L372.906667 113.777778H271.815111a44.259556 44.259556 0 0 0-43.804444 38.229333L227.555556 158.037333v101.148445a56.888889 56.888889 0 0 1-113.379556 6.599111L113.777778 259.185778V158.037333A158.037333 158.037333 0 0 1 262.200889 0.284444L271.815111 0h101.091556z m606.833777 0a158.037333 158.037333 0 0 1 157.752889 148.423111l0.284445 9.614222v101.148445a56.888889 56.888889 0 0 1-113.379556 6.599111L1024 259.185778V158.037333a44.259556 44.259556 0 0 0-38.229333-43.804444L979.740444 113.777778h-101.148444a56.888889 56.888889 0 0 1-6.599111-113.379556L878.592 0h101.148444z" fill="#4D84DB" p-id="2708"></path><path d="M85.333333 568.888889h1080.888889a56.888889 56.888889 0 0 0 0-113.777778h-1080.888889a56.888889 56.888889 0 1 0 0 113.777778z" fill="#E01313" p-id="2709"></path></svg>