<?xml version="1.0" standalone="no"?><!DOCTYPE svg PUBLIC "-//W3C//DTD SVG 1.1//EN" "http://www.w3.org/Graphics/SVG/1.1/DTD/svg11.dtd"><svg t="1589425390014" class="icon" viewBox="0 0 1331 1024" version="1.1" xmlns="http://www.w3.org/2000/svg" p-id="2835" xmlns:xlink="http://www.w3.org/1999/xlink" width="259.9609375" height="200"><defs><style type="text/css"></style></defs><path d="M495.308552 767.999616h340.58223l84.121558 221.286289a25.599987 25.599987 0 0 1-23.910388 34.713583H435.097382a25.599987 25.599987 0 0 1-23.910388-34.713583L495.308552 767.999616z" fill="#4D84DB" p-id="2836"></path><path d="M255.999872 665.599667h767.999616a51.199974 51.199974 0 0 1 51.199974 51.199975v51.199974H204.799898v-51.199974a51.199974 51.199974 0 0 1 51.199974-51.199975z" fill="#FFBA2D" p-id="2837"></path><path d="M107.007946 0h1117.183442A107.007946 107.007946 0 0 1 1331.199334 107.007946v656.383672A107.007946 107.007946 0 0 1 1224.191388 870.399565H107.007946A107.007946 107.007946 0 0 1 0 763.391618V107.007946C0 50.534375 43.827178 4.249598 99.43035 0.3072L107.007946 0z m0 102.399949l-1.740799 0.3584A4.607998 4.607998 0 0 0 102.399949 107.059146v656.281272c0 2.559999 2.047999 4.659198 4.607997 4.659198h1117.183442c2.559999 0 4.607998-2.047999 4.607998-4.607998V107.007946a4.607998 4.607998 0 0 0-4.607998-4.607997H107.007946z" fill="#E01313" p-id="2838"></path><path d="M179.19991 179.19991m-51.199974 0a51.199974 51.199974 0 1 0 102.399949 0 51.199974 51.199974 0 1 0-102.399949 0Z" fill="#E01313" p-id="2839"></path><path d="M255.999872 179.19991m-51.199974 0a51.199974 51.199974 0 1 0 102.399948 0 51.199974 51.199974 0 1 0-102.399948 0Z" fill="#FFBA2D" p-id="2840"></path><path d="M332.799834 179.19991m-51.199975 0a51.199974 51.199974 0 1 0 102.399949 0 51.199974 51.199974 0 1 0-102.399949 0Z" fill="#2CB18D" p-id="2841"></path></svg>